<?xml version="1.0" standalone="no"?>
<!DOCTYPE svg PUBLIC "-//W3C//DTD SVG 1.1//EN" "http://www.w3.org/Graphics/SVG/1.1/DTD/svg11.dtd">
<svg xmlns="http://www.w3.org/2000/svg">
<defs >
<font id="Exo2" horiz-adv-x="559" ><font-face
    font-family="Exo 2 Thin"
    units-per-em="1000"
    panose-1="0 0 0 0 0 0 0 0 0 0"
    ascent="999"
    descent="-201"
    alphabetic="0" />
<glyph unicode=" " horiz-adv-x="230" />
<glyph unicode="!" horiz-adv-x="253" d="M139 695V354L137 203H116L114 354V695H139ZM132 86Q138 86 141 83T144 74V12Q144 6 141 3T132 0H122Q116 0 113 3T110 12V74Q110 80 113 83T122 86H132Z" />
<glyph unicode="&quot;" horiz-adv-x="327" d="M239 690L237 482H217L215 690H239ZM112 690L110 482H90L88 690H112Z" />
<glyph unicode="#" horiz-adv-x="667" d="M281 690L161 0H136L256 690H281ZM532 690L412 0H387L507 690H532ZM607 492L603 470H102L106 492H607ZM565 250L561 228H60L64 250H565Z" />
<glyph unicode="$" d="M277 701Q324 700 371 697T464 689L461 670Q416 673 370 675T277 678Q229 678 195 675T138 658T105 613T94 524Q94 448 119 414T203 371L356 350Q432 341 463 301T495 169Q495 108 481 72T441 18T375 -5T285 -11Q244 -11 195 -9T81 0L84
19Q122 16 153 15T216 13T286 12Q353 13 393 23T451 67T470 169Q470 224 459 256T423 304T356 326L203 347Q130 355 100 397T69 524Q69 586 82 622T120 675T185 697T277 701ZM273 349L294 345L268 -135H247L273 349ZM318 804L294 345L273 349L297 804H318Z" />
<glyph unicode="%" horiz-adv-x="883" d="M211 702Q267 702 300 680T347 613T361 498Q361 428 347 383T300 316T211 294Q155 294 122 316T75 383T61 498Q61 568 75 613T122 680T211 702ZM211 683Q163 683 136 664T96 603T84 498Q84 434 96 393T135 333T211 313Q259
313 287 332T326 393T338 498Q338 562 327 603T287 663T211 683ZM692 690L212 0H188L668 690H692ZM672 401Q728 401 761 379T808 312T822 197Q822 127 808 82T761 15T672 -7Q616 -7 583 15T536 82T522 197Q522 267 536 312T583 379T672 401ZM672 382Q624 382 597
363T557 302T545 197Q545 133 557 92T596 32T672 12Q720 12 748 31T787 92T799 197Q799 261 788 302T748 362T672 382Z" />
<glyph unicode="&amp;" horiz-adv-x="783" d="M357 698Q389 698 429 697T516 690L512 672Q505 673 486 673T442 674T394 675T356 675Q270 675 220 665T148 621T126 520Q126 459 143 426T198 381T302 368H696L693 347H302Q231 347 188 332T126 280T106 174Q106
113 122 79T176 30T277 15Q373 15 432 45T538 139L552 123Q516 74 477 45T389 4T279 -8Q208 -8 164 8T100 65T80 174Q80 254 109 301T217 356V360Q152 365 126 406T100 521Q100 581 115 616T162 669T242 692T357 698ZM555 524V96Q555 56 576 36T635 16H723L726
0Q713 -2 696 -3T665 -5T641 -6Q586 -6 559 20T531 95V363L537 524H555Z" />
<glyph unicode="&apos;" horiz-adv-x="200" d="M112 690L110 482H90L88 690H112Z" />
<glyph unicode="(" horiz-adv-x="355" d="M306 790L310 772Q200 715 148 604T95 313Q95 196 118 107T189 -44T310 -147L306 -165Q184 -107 127 9T69 312Q69 501 126 617T306 790Z" />
<glyph unicode=")" horiz-adv-x="355" d="M49 790Q171 733 228 617T286 312Q286 125 229 9T49 -165L45 -147Q119 -107 166 -45T237 107T260 313Q260 492 208 603T45 772L49 790Z" />
<glyph unicode="*" horiz-adv-x="453" d="M239 690L234 537L328 408L310 395L226 520L143 396L124 409L218 537L215 690H239ZM80 592L202 548L201 539L197 531L72 570L80 592ZM374 590L382 568L255 531L251 539V548L374 590Z" />
<glyph unicode="+" horiz-adv-x="553" d="M485 308V286H68V308H485ZM288 495L287 99H266L265 495H288Z" />
<glyph unicode="," horiz-adv-x="208" d="M109 86Q115 86 118 83T122 74L121 10Q121 -8 119 -30T113 -74T103 -117L91 -112Q93 -82 94 -60T95 0Q86 0 88 10L89 74Q88 80 91 83T100 86H109Z" />
<glyph unicode="-" horiz-adv-x="483" d="M397 262V240H86V262H397Z" />
<glyph unicode="." horiz-adv-x="206" d="M108 86Q114 86 117 83T120 74V12Q120 6 117 3T108 0H98Q92 0 89 3T86 12V74Q86 80 89 83T98 86H108Z" />
<glyph unicode="/" horiz-adv-x="494" d="M456 690L63 -59H38L431 690H456Z" />
<glyph unicode="0" horiz-adv-x="584" d="M292 702Q373 702 420 664T487 546T507 345Q507 224 487 145T420 27T292 -12Q212 -12 165 26T97 144T77 345Q77 467 97 546T164 663T292 702ZM292 679Q239 679 203 659T144 598T113 494T103 345Q103 260 112 197T144 93T202
31T292 11Q345 11 381 31T440 92T471 197T481 345Q481 431 472 493T440 597T382 659T292 679Z" />
<glyph unicode="1" horiz-adv-x="378" d="M251 690V0H226V618Q226 629 227 641T229 664L42 601L37 617L226 690H251Z" />
<glyph unicode="2" horiz-adv-x="557" d="M264 702Q328 702 373 692T441 653T465 564Q465 517 450 475T404 389T326 290L94 22Q124 22 154 22T214 22H496V0H62V14Q62 19 63 22T67 28L307 305Q377 386 408 448T438 572Q436 621 415 643T356 672T269 679Q238 679
210 678T149 671T74 657L68 675Q116 687 149 692T209 700T264 702Z" />
<glyph unicode="3" horiz-adv-x="552" d="M247 702Q324 702 369 688T433 639T453 543Q453 502 443 466T410 404T344 369V365Q416 354 443 306T472 192Q474 124 455 79T390 11T266 -12Q214 -12 162 -7T61 5L67 23Q96 20 128 17T194 13T264 11Q329 11 369 29T428
87T447 192Q447 234 434 271T385 331T276 355L147 356V374L276 377Q328 378 359 394T405 436T424 489T429 542Q428 596 411 625T354 667T248 679Q201 679 157 676T78 667L71 685Q118 693 160 697T247 702Z" />
<glyph unicode="4" horiz-adv-x="595" d="M308 690L82 267Q72 249 81 234T111 218H540V200L443 196H105Q85 196 71 208T53 238T59 274L282 690H308ZM458 560V0H433V443L440 560H458Z" />
<glyph unicode="5" horiz-adv-x="526" d="M438 690L435 668H126L114 403H169Q244 402 298 395T388 367T441 308T458 203Q458 163 452 125T424 55T361 6T247 -12Q211 -12 164 -5T65 16L71 34Q117 23 164 17T245 10Q326 10 366 34T420 102T434 203Q434 266 417 302T361
355T263 376T117 381H103Q97 381 93 385T90 395L104 690H438Z" />
<glyph unicode="6" horiz-adv-x="564" d="M334 702Q352 702 384 701T453 690L445 672Q426 676 411 677T377 678T334 679Q269 679 226 665T156 612T119 498T107 299Q107 222 113 167T138 78T194 27T294 10Q372 10 410 33T460 101T472 209Q472 285 459 331T410 398T308
419Q269 419 236 410T170 377T99 309L95 325Q128 370 159 395T226 430T310 441Q382 441 422 419T480 346T497 206Q497 155 490 115T462 46T401 3T293 -12Q225 -12 183 5T119 59T89 156T81 302Q81 433 95 512T139 633T217 688T334 702Z" />
<glyph unicode="7" horiz-adv-x="505" d="M425 690Q442 690 450 686T459 673T455 649L229 0H204L423 630Q426 640 429 649T436 668H50L48 690H425Z" />
<glyph unicode="8" horiz-adv-x="611" d="M306 698Q368 698 408 688T471 655T503 599T512 518Q512 469 502 435T470 383T413 360V356Q455 352 480 331T515 270T526 172Q526 107 508 67T443 10T306 -8Q219 -8 171 9T104 67T85 172Q85 231 96 270T131 330T198 356V360Q163
364 141 382T109 435T99 518Q99 565 108 598T141 654T204 687T306 698ZM307 347Q247 347 209 341T149 316T119 264T110 172Q110 116 126 82T185 32T306 16Q386 16 428 31T485 81T501 172Q501 230 493 264T463 317T404 341T307 347ZM306 675Q233 675 194 660T139
611T124 518Q124 454 139 422T194 380T307 369Q383 369 421 380T473 423T487 518Q487 576 473 610T420 660T306 675Z" />
<glyph unicode="9" horiz-adv-x="565" d="M270 702Q343 702 385 685T448 627T474 520T480 354Q480 235 466 163T421 52T342 1T227 -12Q208 -12 175 -11T102 0L110 18Q131 15 146 14T179 12T227 11Q288 11 331 23T402 69T441 172T454 351Q454 443 450 506T429 608T375
663T270 680Q198 680 160 655T107 584T92 472Q92 409 106 364T156 295T254 271Q293 271 326 280T392 313T462 381L466 365Q433 321 402 296T336 260T252 249Q183 249 143 275T85 351T67 474Q67 545 84 596T145 674T270 702Z" />
<glyph unicode=":" horiz-adv-x="206" d="M108 430Q114 430 117 427T120 418V356Q120 350 117 347T108 344H98Q92 344 89 347T86 356V418Q86 424 89 427T98 430H108ZM108 86Q114 86 117 83T120 74V12Q120 6 117 3T108 0H98Q92 0 89 3T86 12V74Q86 80 89 83T98 86H108Z" />
<glyph unicode=";" horiz-adv-x="208" d="M108 430Q114 430 117 427T120 418V356Q120 350 117 347T108 344H98Q92 344 89 347T86 356V418Q86 424 89 427T98 430H108ZM109 86Q115 86 118 83T122 74L121 10Q121 -8 119 -30T113 -74T103 -117L91 -112Q93 -82 94 -60T95
0Q86 0 88 10L89 74Q88 80 91 83T100 86H109Z" />
<glyph unicode="&lt;" horiz-adv-x="541" d="M458 489V467L89 295L458 129V107L65 284V306L458 489Z" />
<glyph unicode="=" horiz-adv-x="589" d="M503 407V385H86V407H503ZM503 195V173H86V195H503Z" />
<glyph unicode="&gt;" horiz-adv-x="541" d="M83 489L476 306V284L83 107V129L452 295L83 467V489Z" />
<glyph unicode="?" horiz-adv-x="507" d="M253 712Q349 712 399 675T449 557Q449 511 430 478T383 417T326 360T278 294T259 203H235Q235 261 254 301T301 370T358 426T405 483T424 557Q424 625 383 657T253 690Q203 690 172 689T115 684T55 676L50 694Q74 698
93 701T134 706T183 710T253 712ZM251 86Q257 86 260 83T263 74V12Q263 6 260 3T251 0H241Q235 0 232 3T229 12V74Q229 80 232 83T241 86H251Z" />
<glyph unicode="@" horiz-adv-x="693" d="M477 567Q538 567 573 540T608 450V129H591L586 210Q566 192 529 172T446 138T355 124Q316 124 288 136T246 172T231 229V283Q231 330 261 355T345 381H586V450Q586 490 564 518T476 545H338Q265 545 222 538T156 504T126
421T118 265Q118 183 122 130T141 45T181 -1T252 -20T362 -25H603V-44Q543 -45 483 -46T363 -47Q290 -48 242 -43T164 -20T119 32T99 123T94 264Q94 345 98 399T116 486T156 537T227 560T337 567H477ZM586 364L345 360Q302 359 279 340T255 283V230Q255 190 280
169T354 146Q392 146 435 157T518 188T586 231V364Z" />
<glyph unicode="A" horiz-adv-x="603" d="M323 690Q328 690 331 688T336 681L584 0H557L336 612Q331 626 326 640T316 668H287Q282 654 277 640T267 612L46 0H19L267 681Q269 686 272 688T280 690H323ZM476 274V252H126V274H476Z" />
<glyph unicode="B" horiz-adv-x="612" d="M297 698Q379 698 427 683T497 628T519 518Q519 444 492 405T402 360V356Q479 349 509 302T539 172Q539 101 519 62T452 8T327 -8Q275 -8 238 -8T170 -5T103 0L117 18Q138 17 194 16T327 15Q396 15 436 27T495 74T513
172Q513 241 494 278T432 331T317 347H116V368H317Q382 369 420 381T476 425T493 518Q493 582 474 616T412 662T297 675Q253 675 217 675T155 674T117 672L103 690Q134 694 161 695T220 697T297 698ZM128 690V0H103V690H128Z" />
<glyph unicode="C" horiz-adv-x="561" d="M331 702Q371 702 400 700T454 695T505 685L499 667Q471 672 447 674T396 678T331 679Q246 679 196 647T124 542T102 345Q102 221 124 148T196 43T331 11Q391 11 432 14T513 24L519 6Q479 -3 437 -7T331 -12Q237 -12 181
22T101 135T76 345Q76 477 100 555T181 667T331 702Z" />
<glyph unicode="D" horiz-adv-x="659" d="M332 699Q401 699 449 680T526 620T569 511T583 345Q583 248 570 180T527 71T449 10T332 -9Q266 -9 210 -7T103 0L116 17Q164 16 216 15T332 14Q415 14 464 45T535 149T557 345Q557 468 536 540T465 644T332 676Q268 676
215 675T113 672L103 690Q153 694 210 696T332 699ZM128 690V0H103V690H128Z" />
<glyph unicode="E" horiz-adv-x="551" d="M199 690Q248 690 297 690T395 689T493 686L491 668H204Q168 668 145 645T122 586V104Q122 68 145 45T204 22H491L493 4Q444 2 395 1T297 0T199 0Q155 0 126 29T97 102V588Q97 632 126 661T199 690ZM114 381L450 380V360L114
359V381Z" />
<glyph unicode="F" horiz-adv-x="530" d="M202 690Q250 690 298 690T393 689T489 686L487 668H207Q171 668 148 645T125 586V0H100V588Q100 632 129 661T202 690ZM117 377L446 376V356L117 355V377Z" />
<glyph unicode="G" horiz-adv-x="622" d="M334 702Q379 702 412 700T473 695T530 685L524 667Q493 672 466 674T407 678T334 679Q269 679 225 662T153 605T114 502T102 345Q102 228 122 154T187 46T306 11Q356 11 393 27T461 66T518 114L524 96Q497 65 463 41T390
2T304 -12Q222 -12 172 25T99 141T76 345Q76 477 100 555T181 667T334 702ZM541 400V0H524L517 99L516 111V400H541Z" />
<glyph unicode="H" horiz-adv-x="657" d="M128 690V0H103V690H128ZM540 381V359H120V381H540ZM554 690V0H529V690H554Z" />
<glyph unicode="I" horiz-adv-x="231" d="M128 690V0H103V690H128Z" />
<glyph unicode="J" horiz-adv-x="324" d="M224 690V115Q224 55 194 24T102 -6Q93 -6 82 -5T59 -3T38 0L41 16H99Q199 16 199 116V690H224Z" />
<glyph unicode="K" horiz-adv-x="562" d="M512 690L281 385Q275 377 269 371T259 361V359Q263 355 269 350T281 336L529 0H499L231 360L482 690H512ZM127 690V454Q127 428 127 408T124 361Q126 334 126 311T127 263V0H103V690H127ZM257 371V349H112V371H257Z" />
<glyph unicode="L" horiz-adv-x="507" d="M125 690V104Q125 68 148 45T207 22H479V4Q410 1 341 1T202 0Q158 0 129 29T100 102V690H125Z" />
<glyph unicode="M" horiz-adv-x="854" d="M721 690Q736 690 736 675L766 0H741L711 668H687L461 69Q458 60 448 60H406Q396 60 393 69L167 668H143L113 0H88L118 675Q118 690 133 690H175Q185 690 188 681L379 176Q388 153 396 129T414 82H440Q449 106 458 130T476
178L666 681Q669 690 679 690H721Z" />
<glyph unicode="N" horiz-adv-x="688" d="M585 690V15Q585 0 570 0H528Q522 0 518 2T510 11L190 600Q181 617 172 634T153 668H128Q128 651 128 634T128 599V0H103V675Q103 690 118 690H157Q163 690 167 688T175 679L488 103Q499 83 510 63T532 22H560Q560 45
560 67T560 112V690H585Z" />
<glyph unicode="O" horiz-adv-x="662" d="M331 702Q402 702 451 683T529 622T572 512T586 345Q586 246 573 178T530 68T451 7T331 -12Q260 -12 211 7T133 68T90 178T76 345Q76 444 89 512T132 622T211 683T331 702ZM331 679Q246 679 196 647T124 542T102 345Q102
221 124 148T196 43T331 11Q416 11 466 43T538 148T560 345Q560 469 538 542T466 647T331 679Z" />
<glyph unicode="P" horiz-adv-x="581" d="M324 698Q397 698 440 680T503 618T523 495Q523 415 504 371T441 310T324 292Q284 292 250 292T187 294T140 295T113 297L116 315Q165 315 218 315T324 315Q388 316 425 331T480 385T497 495Q497 567 480 606T426 660T324
675Q248 675 193 675T117 672L103 690Q138 694 169 695T236 697T324 698ZM128 690V0H103V690H128Z" />
<glyph unicode="Q" horiz-adv-x="662" d="M331 702Q402 702 451 683T529 622T572 512T586 345Q586 246 573 178T530 68T451 7T331 -12Q260 -12 211 7T133 68T90 178T76 345Q76 444 89 512T132 622T211 683T331 702ZM298 -51Q345 -84 398 -104T522 -136L515 -161Q449
-152 390 -127T286 -65L298 -51ZM331 679Q246 679 196 647T124 542T102 345Q102 221 124 148T196 43T331 11Q416 11 466 43T538 148T560 345Q560 469 538 542T466 647T331 679Z" />
<glyph unicode="R" horiz-adv-x="607" d="M324 698Q397 698 440 682T503 623T523 504Q523 442 510 404T468 346T396 320V316Q414 311 428 297T453 264T472 221L548 0H520L446 218Q429 268 401 289T333 310Q276 310 230 311T154 313T113 315L116 333H324Q388 334
425 349T480 400T497 504Q497 572 480 609T426 660T324 675Q248 675 193 675T117 672L103 690Q138 694 169 695T236 697T324 698ZM128 690V0H103V690H128Z" />
<glyph unicode="S" horiz-adv-x="554" d="M274 701Q321 700 368 697T461 689L458 670Q413 673 367 675T274 678Q226 678 192 675T135 658T102 613T91 524Q91 448 116 414T200 371L353 350Q429 341 460 301T492 169Q492 108 478 72T438 18T372 -5T282 -11Q241 -11
192 -9T78 0L81 19Q119 16 150 15T213 13T283 12Q350 13 390 23T448 67T467 169Q467 224 456 256T420 304T353 326L200 347Q127 355 97 397T66 524Q66 586 79 622T117 675T182 697T274 701Z" />
<glyph unicode="T" horiz-adv-x="564" d="M294 690V0H269V690H294ZM537 690V668H27V690H537Z" />
<glyph unicode="U" horiz-adv-x="667" d="M569 690V255Q569 159 546 101T472 15T334 -12Q247 -12 196 15T121 100T98 255V690H123V255Q123 166 143 112T210 35T334 11Q411 11 457 34T523 112T544 255V690H569Z" />
<glyph unicode="V" horiz-adv-x="592" d="M566 690L330 9Q329 5 326 3T317 0H275Q271 0 268 2T262 9L26 690H53L257 96Q264 77 270 59T282 22H310Q316 41 322 59T335 97L539 690H566Z" />
<glyph unicode="W" horiz-adv-x="930" d="M897 690L714 10Q713 6 709 3T700 0H658Q653 0 650 3T644 11L497 591Q492 611 487 630T477 668H453Q448 649 443 630T433 591L286 11Q285 6 281 3T272 0H230Q225 0 222 3T216 10L33 690H59L219 91Q224 74 228 57T237 22H265Q270
39 274 56T282 90L432 679Q434 684 437 687T446 690H484Q489 690 493 687T498 679L648 91Q653 74 657 57T665 22H693Q698 39 702 56T711 90L871 690H897Z" />
<glyph unicode="X" horiz-adv-x="593" d="M542 690L336 360L555 0H525L306 360L512 690H542ZM81 690L287 360L68 0H38L257 360L51 690H81ZM327 372V350H275V372H327Z" />
<glyph unicode="Y" horiz-adv-x="541" d="M518 690L279 250H262L22 690H50L230 357Q239 341 248 324T268 289H273Q282 306 292 323T310 356L490 690H518ZM283 281V0H258V281H283Z" />
<glyph unicode="Z" horiz-adv-x="558" d="M474 668L502 667L80 22L52 23L474 668ZM507 23V0H52V23H507ZM502 690V667H55V690H502Z" />
<glyph unicode="[" horiz-adv-x="312" d="M262 768V746H142Q130 746 130 734V-131Q130 -143 142 -143H262V-165H137Q124 -165 115 -156T106 -134V737Q106 751 115 759T137 768H262Z" />
<glyph unicode="\" horiz-adv-x="494" d="M63 690L456 -59H431L38 690H63Z" />
<glyph unicode="]" horiz-adv-x="312" d="M175 768Q189 768 197 760T206 737V-134Q206 -147 198 -156T175 -165H50V-143H170Q182 -143 182 -131V734Q182 746 170 746H50V768H175Z" />
<glyph unicode="^" horiz-adv-x="392" d="M205 575L362 378L350 366L200 548H192L43 366L30 378L187 575H205Z" />
<glyph unicode="_" horiz-adv-x="431" d="M431 0V-22H0V0H431Z" />
<glyph unicode="`" horiz-adv-x="277" d="M68 708L217 563L203 550L50 691L68 708Z" />
<glyph unicode="a" horiz-adv-x="538" d="M314 492Q355 492 385 479T431 436T447 358V0H429L423 106V112V358Q423 404 400 436T313 469Q259 469 200 465T88 453L85 471Q117 476 150 480T224 488T314 492ZM427 290L426 270L181 266Q137 265 114 243T91 177V115Q91
68 116 44T191 18Q230 17 274 31T360 70T428 122V97Q414 81 389 64T331 30T263 4T191 -6Q152 -6 124 8T81 49T66 115V177Q66 231 96 260T181 290H427Z" />
<glyph unicode="b" horiz-adv-x="558" d="M314 492Q409 492 448 435T488 240Q488 172 478 124T444 46T384 2T294 -12Q269 -12 244 -10T195 -4T145 6T92 19L113 37Q148 27 178 22T237 14T294 11Q355 11 392 33T446 106T463 240Q463 324 448 374T401 447T314 469Q266
469 221 443T113 367V390Q149 422 182 444T248 479T314 492ZM116 700V483Q116 454 116 434T113 390L116 374V19H92V700H116Z" />
<glyph unicode="c" horiz-adv-x="478" d="M288 492Q306 492 329 491T377 486T423 475L417 457Q391 464 354 466T292 469Q220 469 177 449T114 379T94 240Q94 152 113 102T176 32T292 11Q306 11 330 12T381 16T430 23L434 5Q401 -2 363 -7T289 -12Q209 -12 161
12T91 92T69 240Q69 333 90 388T160 467T288 492Z" />
<glyph unicode="d" horiz-adv-x="561" d="M245 492Q295 492 344 479T446 442V419Q385 444 339 456T245 469Q192 469 159 447T111 375T96 240Q96 156 111 106T159 34T245 11Q277 11 307 21T371 54T446 110L444 84Q391 37 343 13T245 -12Q151 -12 111 46T71 240Q71
331 88 386T144 467T245 492ZM466 700V0H448L444 84L442 88V426L445 442Q442 468 442 488T442 535V700H466Z" />
<glyph unicode="e" horiz-adv-x="527" d="M275 492Q369 492 416 458T464 356Q466 292 443 260T361 227H83V249H361Q405 249 423 276T439 354Q438 414 397 441T276 469Q209 469 169 447T112 376T94 243Q94 157 114 106T176 33T286 11Q335 11 378 15T449 24L453
6Q437 1 407 -3T343 -9T283 -12Q207 -12 160 13T91 95T69 242Q69 334 89 389T155 468T275 492Z" />
<glyph unicode="f" horiz-adv-x="354" d="M247 714Q261 714 282 714T326 713T365 710V692H255Q195 692 171 668T146 581V0H122V581Q122 625 134 654T173 699T247 714ZM324 480V458H35V475L128 480H324Z" />
<glyph unicode="g" horiz-adv-x="545" d="M269 492Q338 492 379 475T440 425T459 343Q459 294 440 261T380 212T269 196Q201 196 159 212T97 261T77 343Q77 392 96 425T158 475T269 492ZM269 470Q177 470 139 438T101 343Q101 279 139 249T269 218Q361 218 398
248T435 343Q435 406 398 438T269 470ZM516 480L513 462L395 458L360 480H516ZM136 230L156 227Q129 202 120 173T125 120T188 87L381 53Q444 42 464 13T485 -74Q485 -125 464 -155T397 -198T274 -212Q214 -212 173 -205T106 -181T69 -139T57 -74Q57 -40 62 -16T81
28T122 62L164 85L189 78L138 47Q114 33 102 17T86 -20T81 -74Q81 -116 100 -141T161 -178T274 -189Q342 -189 383 -178T442 -142T461 -74Q461 -42 455 -21T429 13T374 32L175 67Q144 73 125 86T98 119T92 158T106 197T136 230Z" />
<glyph unicode="h" horiz-adv-x="569" d="M349 492Q478 492 478 361V0H454V358Q454 415 427 442T344 469Q289 469 238 444T115 369V392Q177 439 235 465T349 492ZM118 700L120 485Q120 459 119 436T115 392L118 376V0H94V700H118Z" />
<glyph unicode="i" horiz-adv-x="220" d="M122 480V0H98V480H122ZM115 679Q127 679 127 667V605Q127 593 115 593H105Q93 593 93 605V667Q93 679 105 679H115Z" />
<glyph unicode="j" horiz-adv-x="220" d="M122 480V-46Q122 -78 114 -107T91 -161T56 -210L43 -200Q69 -166 83 -131T98 -46V480H122ZM115 679Q127 679 127 667V605Q127 593 115 593H105Q93 593 93 605V667Q93 679 105 679H115Z" />
<glyph unicode="k" horiz-adv-x="473" d="M424 480L243 295Q239 291 232 285T220 275V273Q225 269 232 262T243 248L440 0H409L189 276L392 480H424ZM118 700L120 368Q120 342 119 322T115 275Q117 248 117 225T118 177V0H94V700H118ZM218 286V264H103V286H218Z" />
<glyph unicode="l" horiz-adv-x="270" d="M119 700V96Q119 57 140 37T199 16H257L260 0Q254 -2 242 -3T218 -5T196 -6Q150 -6 123 20T95 95V700H119Z" />
<glyph unicode="m" horiz-adv-x="880" d="M665 492Q725 492 757 459T789 361V0H765V358Q765 415 739 442T660 469Q627 469 595 458T529 425T451 369V392Q507 442 560 467T665 492ZM113 480L116 392L119 376V0H95V480H113ZM330 492Q390 492 422 459T454 361V0H430V358Q430
415 404 442T325 469Q292 469 260 458T194 425T116 369V392Q172 442 225 467T330 492Z" />
<glyph unicode="n" horiz-adv-x="570" d="M350 492Q479 492 479 361V0H455V358Q455 415 428 442T345 469Q290 469 239 444T116 369V392Q178 442 236 467T350 492ZM113 480L116 392L119 376V0H95V480H113Z" />
<glyph unicode="o" horiz-adv-x="560" d="M280 492Q358 492 404 468T470 388T490 241Q490 148 470 93T404 13T280 -12Q203 -12 157 12T90 92T70 240Q70 333 90 388T156 467T280 492ZM280 469Q212 469 172 448T113 377T95 241Q95 154 113 104T171 32T280 11Q348
11 388 32T447 103T465 241Q465 327 447 377T389 448T280 469Z" />
<glyph unicode="p" horiz-adv-x="561" d="M316 492Q411 492 450 435T490 240Q490 149 473 94T417 13T316 -12Q267 -12 218 2T115 42V61Q177 36 222 24T316 11Q370 11 402 33T450 106T465 240Q465 324 450 374T403 447T316 469Q268 469 223 446T115 369L117 393Q153
426 186 448T251 481T316 492ZM113 480L117 393L119 389V54L116 42Q119 16 119 -4T119 -51V-210H95V480H113Z" />
<glyph unicode="q" d="M268 492Q291 492 315 490T363 484T413 474T466 461L445 443Q411 453 380 458T322 466T272 469Q208 469 169 448T113 376T95 239Q95 117 128 64T238 11Q291 11 337 35T445 106L450 87Q411 55 376 33T307 0T234 -12Q147 -12 109 49T70 240Q70
309 81 357T115 435T176 478T268 492ZM442 461H466V-210H442V-10Q442 19 442 39T445 83L442 99V461Z" />
<glyph unicode="r" horiz-adv-x="383" d="M113 480L116 392L119 376V0H95V480H113ZM360 492L355 469H338Q286 469 235 443T116 369V392Q176 439 231 465T341 492H360Z" />
<glyph unicode="s" horiz-adv-x="499" d="M239 492Q268 492 300 491T364 487T425 480L422 462Q378 465 331 467T239 470Q186 471 152 467T102 440T86 365Q86 312 107 291T166 264L328 244Q381 237 409 208T437 122Q437 61 415 33T351 -3T248 -11Q213 -11 171 -9T74
0L77 18Q109 15 136 14T190 12T249 11Q309 12 345 19T397 50T413 122Q413 175 389 196T328 221L166 241Q133 245 110 258T74 298T62 365Q62 426 82 453T141 486T239 492Z" />
<glyph unicode="t" horiz-adv-x="347" d="M145 631V96Q145 56 166 36T225 16H313L316 0Q303 -2 286 -3T255 -5T231 -6Q176 -6 149 20T121 95V631H145ZM323 480V458H34V475L127 480H323Z" />
<glyph unicode="u" horiz-adv-x="560" d="M115 480V122Q115 65 142 38T225 11Q278 11 327 36T444 111V88Q385 39 330 14T220 -12Q91 -12 91 119V480H115ZM465 480V0H447L444 88L441 104V480H465Z" />
<glyph unicode="v" horiz-adv-x="507" d="M477 480L280 8Q278 4 275 2T267 0H240Q236 0 233 2T227 8L30 480H56L209 113Q219 91 228 68T247 22H260Q270 45 279 68T299 114L451 480H477Z" />
<glyph unicode="w" horiz-adv-x="812" d="M778 480L611 9Q610 5 607 3T598 0H572Q568 0 565 2T559 9L434 386Q428 404 423 422T411 458H401Q395 440 389 422T377 386L253 9Q252 5 249 3T240 0H214Q210 0 207 2T201 9L34 480H60L198 86Q204 70 209 54T220 22H234Q239
39 244 55T255 87L381 471Q383 475 386 477T394 480H418Q423 480 426 478T431 471L557 87Q562 71 567 55T578 22H592Q598 39 603 55T614 87L752 480H778Z" />
<glyph unicode="x" horiz-adv-x="505" d="M456 480L287 250L469 0H439L257 250L426 480H456ZM79 480L248 250L66 0H36L218 250L49 480H79ZM278 262V240H226V262H278Z" />
<glyph unicode="y" horiz-adv-x="506" d="M477 480L256 -47Q243 -77 230 -102T198 -149T157 -185T101 -210L95 -196Q155 -173 185 -132T235 -38L254 9Q261 25 268 42T282 76L451 480H477ZM56 480L225 74Q230 61 236 48T247 22H266L256 0H240Q236 0 233 2T227 8L30
480H56Z" />
<glyph unicode="z" horiz-adv-x="499" d="M413 459L443 458L83 21L53 22L413 459ZM446 22V0H53V22H446ZM443 480V458H56V480H443Z" />
<glyph unicode="{" horiz-adv-x="298" d="M248 768V750Q188 750 167 723T145 642V437Q145 397 139 376T116 345T69 328Q101 317 118 307T142 277T149 223V-39Q149 -91 170 -119T252 -147V-165Q206 -165 178 -152T138 -111T125 -39V233Q125 262 118 275T96 296T56
313V343Q83 351 97 357T116 378T121 427V642Q121 687 133 714T174 755T248 768Z" />
<glyph unicode="|" horiz-adv-x="234" d="M128 781V-169H106V781H128Z" />
<glyph unicode="}" horiz-adv-x="298" d="M50 768Q96 768 124 755T164 715T177 642V427Q177 393 182 378T201 357T242 343V313Q218 304 203 297T180 276T173 233V-39Q173 -83 161 -111T120 -152T46 -165V-147Q106 -147 127 -119T149 -39V223Q149 258 156 277T180
306T229 328Q199 335 183 345T160 376T153 437V642Q153 695 132 722T50 750V768Z" />
<glyph unicode="~" horiz-adv-x="533" d="M162 330Q195 328 219 318T267 296T314 274T372 262Q403 260 416 275T430 325H447Q449 282 428 260T372 240Q334 242 307 252T258 274T214 296T162 308Q131 311 118 295T104 241H87Q86 272 95 292T121 322T162 330Z" />
<glyph unicode="&#xa0;" horiz-adv-x="230" />
<glyph unicode="&#xa1;" horiz-adv-x="233" d="M127 277L129 126V-205H104V126L106 277H127ZM122 480Q128 480 131 477T134 468V406Q134 400 131 397T122 394H112Q106 394 103 397T100 406V468Q100 474 103 477T112 480H122Z" />
<glyph unicode="&#xa2;" horiz-adv-x="504" d="M288 602Q306 602 329 601T377 596T423 585L417 567Q391 574 354 576T292 579Q220 579 177 559T114 489T94 350Q94 262 113 212T176 142T292 121Q306 121 330 122T381 126T430 133L434 115Q401 108 363 103T289 98Q209
98 161 122T91 202T69 350Q69 443 90 498T160 577T288 602ZM271 113L263 0H242L250 113H271ZM304 589L271 110H250L283 589H304ZM311 690L304 586H283L290 690H311Z" />
<glyph unicode="&#xa3;" horiz-adv-x="560" d="M320 701Q340 701 364 700T416 697T476 691L473 673Q450 675 429 676T388 678T346 679T297 679Q219 679 190 644T164 530L177 243Q179 196 175 154T155 79T104 22Q119 22 134 22T164 22H501V0H72V22Q125 56 141 111T153
243L140 527Q137 586 149 621T186 673T245 695T320 701ZM422 373L420 353H65V373H422Z" />
<glyph unicode="&#xa4;" horiz-adv-x="602" d="M300 523Q253 523 215 500T153 438T130 352Q130 305 153 266T214 205T300 182Q347 182 385 204T446 266T469 352Q469 399 446 438T385 500T300 523ZM98 569L180 487L165 473L84 554L98 569ZM503 569L517 554L437
475L423 489L503 569ZM169 235L183 221L98 135L83 149L169 235ZM433 233L518 149L503 135L419 219L433 233ZM300 543Q353 543 396 518T464 449T490 352Q490 300 465 257T396 188T300 162Q247 162 204 187T135 256T109 352Q109 405 134 448T203 517T300 543Z" />
<glyph unicode="&#xa5;" horiz-adv-x="602" d="M548 690L309 280H292L52 690H80L257 387Q267 371 277 353T298 318H303Q313 335 323 352T343 386L520 690H548ZM313 311V0H288V311H313ZM511 196V176H95V196H511ZM511 306V286H95V306H511Z" />
<glyph unicode="&#xa6;" horiz-adv-x="236" d="M129 781V381H107V781H129ZM129 231V-169H107V231H129Z" />
<glyph unicode="&#xa7;" horiz-adv-x="543" d="M108 416Q103 370 106 334T126 271T173 226L366 117Q404 96 426 74T459 26T469 -32Q469 -87 445 -110T381 -139T292 -144Q257 -143 222 -142T151 -138T76 -132L79 -114Q118 -116 153 -117T223 -120T292 -122Q335
-122 369 -119T424 -96T444 -32Q444 14 422 42T365 90L174 198Q132 222 111 252T86 323T86 416H108ZM251 702Q289 702 326 701T400 697T467 690L464 672Q431 674 403 675T340 678T251 680Q207 681 173 677T119 654T99 593Q99 548 121 520T178 472L370 363Q413 339
433 308T458 236T457 142H435Q441 189 437 226T416 290T370 335L178 445Q139 468 116 490T84 537T74 593Q74 641 95 664T157 695T251 702Z" />
<glyph unicode="&#xa8;" horiz-adv-x="399" d="M293 673Q303 673 303 662V606Q303 595 293 595H283Q273 595 273 606V662Q273 673 283 673H293ZM116 673Q126 673 126 662V606Q126 595 116 595H106Q96 595 96 606V662Q96 673 106 673H116Z" />
<glyph unicode="&#xa9;" horiz-adv-x="858" d="M429 702Q503 702 568 676T682 601T758 488T786 345Q786 267 759 202T682 89T568 15T429 -12Q355 -12 291 14T177 89T100 202T72 345Q72 423 100 488T177 601T290 675T429 702ZM434 580Q480 580 509 578T567 568L562
553Q530 557 504 558T434 559Q370 559 332 539T278 473T261 348Q261 270 277 224T332 157T434 136Q481 136 512 138T574 144L578 128Q548 122 516 119T434 116Q362 116 320 138T258 212T239 348Q239 433 258 484T319 557T434 580ZM429 681Q360 681 299 656T192
586T120 479T93 345Q93 272 119 211T192 105T299 34T429 9Q498 9 559 34T666 104T739 211T765 345Q765 418 739 479T667 585T559 656T429 681Z" />
<glyph unicode="&#xaa;" horiz-adv-x="444" d="M258 600Q303 600 329 579T355 508V270H338L333 341V346V508Q333 538 317 559T256 580Q218 580 176 578T96 570L93 586Q116 589 140 592T194 598T258 600ZM340 465L339 449L165 446Q134 445 118 431T102 389V349Q102
318 120 303T172 286Q200 286 231 295T290 321T338 355V337Q328 326 310 314T269 291T221 273T169 266Q126 266 103 287T79 348V389Q79 425 101 445T163 465H340Z" />
<glyph unicode="&#xab;" horiz-adv-x="452" d="M372 454L384 444L236 251L385 56L373 46L209 247V255L372 454ZM214 454L226 444L78 251L227 56L215 46L51 247V255L214 454Z" />
<glyph unicode="&#xac;" horiz-adv-x="593" d="M503 307V285H86V307H503ZM503 294V129H480V294H503Z" />
<glyph unicode="&#xad;" horiz-adv-x="483" d="M397 262V240H86V262H397Z" />
<glyph unicode="&#xae;" horiz-adv-x="581" d="M291 701Q353 701 403 671T483 591T513 479Q513 417 483 367T403 286T291 256Q229 256 179 286T98 366T68 479Q68 541 98 591T178 671T291 701ZM208 619V336H190V619H208ZM291 685Q235 685 188 657T114 583T86 479Q86
422 113 375T188 300T291 272Q347 272 393 300T467 375T495 479Q495 536 468 582T394 657T291 685ZM302 622Q358 622 381 606T404 542Q404 505 389 489T340 467V465Q353 463 363 453T379 426L416 336H396L360 424Q352 444 339 452T306 461Q262 461 233 461T195
463L196 475H302Q348 476 367 489T386 541Q386 581 367 593T302 606Q264 606 236 606T197 605L190 619Q217 621 240 621T302 622Z" />
<glyph unicode="&#xaf;" horiz-adv-x="400" d="M330 648V625H70V648H330Z" />
<glyph unicode="&#xb0;" horiz-adv-x="383" d="M192 702Q226 702 253 685T298 641T315 579Q315 545 298 517T254 472T192 455Q158 455 130 472T85 517T68 579Q68 613 85 640T130 685T192 702ZM192 682Q149 682 119 652T88 579Q88 552 102 528T139 490T192 475Q221
475 244 489T281 528T295 579Q295 622 265 652T192 682Z" />
<glyph unicode="&#xb1;" horiz-adv-x="599" d="M508 358V336H91V358H508ZM508 116V94H91V116H508ZM311 505L310 189H289L288 505H311Z" />
<glyph unicode="&#xb2;" horiz-adv-x="364" d="M191 753Q226 753 252 745T292 717T307 666Q307 623 284 589T218 508L93 373Q110 373 125 373T157 373H327V355H57V362Q57 365 58 367T61 370L207 528Q235 558 251 579T275 619T281 664Q280 705 257 719T194 733Q166
733 136 729T69 716L65 734Q104 745 135 749T191 753Z" />
<glyph unicode="&#xb3;" horiz-adv-x="387" d="M174 753Q239 753 269 733T299 663Q299 625 285 600T241 564V562Q277 553 292 529T309 463Q310 405 280 376T185 347Q151 347 118 352T58 364L65 381Q81 377 101 374T142 370T184 368Q237 368 260 389T284 463Q284
487 278 506T251 538T190 550L107 551V569L190 571Q230 572 247 587T270 623T274 662Q273 705 252 719T175 733Q148 733 118 728T68 718L63 735Q90 743 119 748T174 753Z" />
<glyph unicode="&#xb4;" horiz-adv-x="277" d="M209 708L227 691L74 550L60 563L209 708Z" />
<glyph unicode="&#xb5;" horiz-adv-x="572" d="M118 480V122Q118 65 146 38T229 11Q285 11 335 37T417 107T451 205L454 141Q432 88 395 54T314 4T230 -12Q186 -12 156 2T111 45T95 119V480H118ZM118 83V-105L112 -210H95V133L118 83ZM475 480V90Q475 72 476 55T484
26T510 15H549L552 0Q542 -3 531 -4T505 -6Q471 -6 463 20T454 84V141L451 157V480H475Z" />
<glyph unicode="&#xb6;" horiz-adv-x="597" d="M353 702Q380 702 418 699T488 685L482 667Q457 672 424 674T360 678T305 679L296 200Q166 210 110 268T54 450Q54 543 84 598T179 677T353 702ZM311 685V-210H286V685H311ZM488 685V0H463V685H488Z" />
<glyph unicode="&#xb7;" horiz-adv-x="206" d="M108 300Q114 300 117 297T120 288V226Q120 220 117 217T108 214H98Q92 214 89 217T86 226V288Q86 294 89 297T98 300H108Z" />
<glyph unicode="&#xb8;" horiz-adv-x="219" d="M103 -49Q129 -47 146 -53T173 -75T181 -114Q181 -147 164 -173T116 -211T42 -219L46 -204Q99 -206 129 -179T159 -114Q159 -86 146 -75T100 -63L103 -49Z" />
<glyph unicode="&#xb9;" horiz-adv-x="287" d="M167 747V355H145V700Q145 706 145 712T147 726L37 690L33 705L145 747H167Z" />
<glyph unicode="&#xba;" horiz-adv-x="449" d="M224 600Q307 600 340 562T374 431Q374 369 360 332T313 279T224 262Q142 262 109 300T75 431Q75 524 108 562T224 600ZM224 581Q154 581 126 549T98 431Q98 346 126 314T224 282Q294 282 322 314T350 431Q350 517
322 549T224 581Z" />
<glyph unicode="&#xbb;" horiz-adv-x="452" d="M80 454L243 255V247L79 46L67 56L216 251L68 444L80 454ZM238 454L401 255V247L237 46L225 56L374 251L226 444L238 454Z" />
<glyph unicode="&#xbc;" horiz-adv-x="840" d="M630 690L150 0H126L606 690H630ZM201 690V276H180V639Q180 647 180 654T182 669L58 632L54 646L180 690H201ZM633 414L484 162Q478 152 484 143T504 133H788V118L724 115H494Q473 115 463 130T462 163L610 414H633ZM743
336V0H722V266L727 336H743Z" />
<glyph unicode="&#xbd;" horiz-adv-x="871" d="M630 690L150 0H126L606 690H630ZM201 690V276H180V639Q180 647 180 654T182 669L58 632L54 646L180 690H201ZM656 421Q699 421 729 415T775 391T791 337Q791 296 769 260T699 175L546 19Q566 19 586 19T626 19H812V0H519V12Q519
16 520 18T523 23L681 184Q727 232 748 268T768 340Q767 382 737 392T658 402Q627 402 599 400T527 389L523 405Q571 416 599 418T656 421Z" />
<glyph unicode="&#xbe;" horiz-adv-x="930" d="M734 690L254 0H230L710 690H734ZM194 695Q273 695 304 675T335 600Q335 563 320 533T260 495V493Q308 486 326 458T346 389Q348 328 317 298T206 267Q171 267 136 270T68 277L72 293Q92 291 113 290T158 287T204
286Q267 286 295 309T324 390Q324 415 316 436T283 470T212 484L126 485V500L212 502Q259 503 280 518T308 556T314 597Q313 644 287 660T194 676Q162 676 132 674T79 669L75 685Q107 690 135 692T194 695ZM722 414L573 162Q567 152 573 143T593 133H877V118L813
115H583Q562 115 552 130T551 163L699 414H722ZM822 336V0H801V266L806 336H822Z" />
<glyph unicode="&#xbf;" horiz-adv-x="504" d="M270 287Q270 229 251 189T204 120T148 64T100 7T81 -67Q81 -135 122 -167T252 -200Q303 -200 334 -199T391 -194T450 -186L455 -204Q431 -208 412 -211T371 -216T322 -220T252 -222Q156 -222 106 -184T56 -67Q56
-21 75 12T122 73T179 130T227 196T246 287H270ZM264 490Q270 490 273 487T276 478V416Q276 410 273 407T264 404H254Q248 404 245 407T242 416V478Q242 484 245 487T254 490H264Z" />
<glyph unicode="&#xc0;" horiz-adv-x="603" d="M323 690Q328 690 331 688T336 681L584 0H557L336 612Q331 626 326 640T316 668H287Q282 654 277 640T267 612L46 0H19L267 681Q269 686 272 688T280 690H323ZM476 274V252H126V274H476ZM192 894L341 749L327 736L174
877L192 894Z" />
<glyph unicode="&#xc1;" horiz-adv-x="603" d="M323 690Q328 690 331 688T336 681L584 0H557L336 612Q331 626 326 640T316 668H287Q282 654 277 640T267 612L46 0H19L267 681Q269 686 272 688T280 690H323ZM476 274V252H126V274H476ZM403 894L421 877L268 736L254
749L403 894Z" />
<glyph unicode="&#xc2;" horiz-adv-x="603" d="M323 690Q328 690 331 688T336 681L584 0H557L336 612Q331 626 326 640T316 668H287Q282 654 277 640T267 612L46 0H19L267 681Q269 686 272 688T280 690H323ZM476 274V252H126V274H476ZM310 880L446 763L435 751L305
853H297L168 751L156 763L292 880H310Z" />
<glyph unicode="&#xc3;" horiz-adv-x="603" d="M323 690Q328 690 331 688T336 681L584 0H557L336 612Q331 626 326 640T316 668H287Q282 654 277 640T267 612L46 0H19L267 681Q269 686 272 688T280 690H323ZM476 274V252H126V274H476ZM232 866Q254 864 270 854T302
832T333 810T372 798Q403 796 416 811T430 861H447Q449 818 428 796T372 776Q339 779 317 794T276 826T232 844Q201 847 188 831T174 777H157Q156 808 165 828T191 858T232 866Z" />
<glyph unicode="&#xc4;" horiz-adv-x="603" d="M323 690Q328 690 331 688T336 681L584 0H557L336 612Q331 626 326 640T316 668H287Q282 654 277 640T267 612L46 0H19L267 681Q269 686 272 688T280 690H323ZM476 274V252H126V274H476ZM395 856Q405 856 405 845V789Q405
778 395 778H385Q375 778 375 789V845Q375 856 385 856H395ZM218 856Q228 856 228 845V789Q228 778 218 778H208Q198 778 198 789V845Q198 856 208 856H218Z" />
<glyph unicode="&#xc5;" horiz-adv-x="603" d="M323 690Q328 690 331 688T336 681L584 0H557L336 612Q331 626 326 640T316 668H287Q282 654 277 640T267 612L46 0H19L267 681Q269 686 272 688T280 690H323ZM476 274V252H126V274H476ZM302 909Q329 909 350 896T385
862T398 814Q398 790 386 768T351 733T302 719Q276 719 254 731T219 766T206 814Q206 840 219 861T254 896T302 909ZM302 890Q270 890 249 868T227 814Q227 781 248 760T302 738Q335 738 356 759T377 814Q377 846 356 868T302 890Z" />
<glyph unicode="&#xc6;" horiz-adv-x="905" d="M575 690Q668 690 730 689T847 686V668H578Q541 668 519 646T496 586V104Q496 68 519 45T578 22H847V4Q778 1 710 1T573 0Q529 0 500 29T471 102V587Q471 610 483 633T512 664H506Q490 657 470 640T430 592L41 0H11L410
605Q428 633 447 650T486 675T529 687T575 690ZM483 294V272H206L219 294H483ZM488 381L804 380V360L488 359V381Z" />
<glyph unicode="&#xc7;" horiz-adv-x="561" d="M331 702Q371 702 400 700T454 695T505 685L499 667Q471 672 447 674T396 678T331 679Q246 679 196 647T124 542T102 345Q102 221 124 148T196 43T331 11Q391 11 432 14T513 24L519 6Q479 -3 437 -7T331 -12Q237
-12 181 22T101 135T76 345Q76 477 100 555T181 667T331 702ZM302 -61Q328 -59 345 -65T372 -87T380 -126Q380 -159 363 -185T315 -223T241 -231L245 -216Q298 -218 328 -191T358 -126Q358 -98 345 -87T299 -75L302 -61Z" />
<glyph unicode="&#xc8;" horiz-adv-x="551" d="M199 690Q248 690 297 690T395 689T493 686L491 668H204Q168 668 145 645T122 586V104Q122 68 145 45T204 22H491L493 4Q444 2 395 1T297 0T199 0Q155 0 126 29T97 102V588Q97 632 126 661T199 690ZM114 381L450
380V360L114 359V381ZM200 919L349 774L335 761L182 902L200 919Z" />
<glyph unicode="&#xc9;" horiz-adv-x="551" d="M199 690Q248 690 297 690T395 689T493 686L491 668H204Q168 668 145 645T122 586V104Q122 68 145 45T204 22H491L493 4Q444 2 395 1T297 0T199 0Q155 0 126 29T97 102V588Q97 632 126 661T199 690ZM114 381L450
380V360L114 359V381ZM411 919L429 902L276 761L262 774L411 919Z" />
<glyph unicode="&#xca;" horiz-adv-x="551" d="M199 690Q248 690 297 690T395 689T493 686L491 668H204Q168 668 145 645T122 586V104Q122 68 145 45T204 22H491L493 4Q444 2 395 1T297 0T199 0Q155 0 126 29T97 102V588Q97 632 126 661T199 690ZM114 381L450
380V360L114 359V381ZM318 905L454 788L443 776L313 878H305L176 776L164 788L300 905H318Z" />
<glyph unicode="&#xcb;" horiz-adv-x="551" d="M199 690Q248 690 297 690T395 689T493 686L491 668H204Q168 668 145 645T122 586V104Q122 68 145 45T204 22H491L493 4Q444 2 395 1T297 0T199 0Q155 0 126 29T97 102V588Q97 632 126 661T199 690ZM114 381L450
380V360L114 359V381ZM403 881Q413 881 413 870V814Q413 803 403 803H393Q383 803 383 814V870Q383 881 393 881H403ZM226 881Q236 881 236 870V814Q236 803 226 803H216Q206 803 206 814V870Q206 881 216 881H226Z" />
<glyph unicode="&#xcc;" horiz-adv-x="231" d="M128 690V0H103V690H128ZM5 894L154 749L140 736L-13 877L5 894Z" />
<glyph unicode="&#xcd;" horiz-adv-x="231" d="M128 690V0H103V690H128ZM216 894L234 877L81 736L67 749L216 894Z" />
<glyph unicode="&#xce;" horiz-adv-x="231" d="M128 690V0H103V690H128ZM123 880L259 763L248 751L118 853H110L-19 751L-31 763L105 880H123Z" />
<glyph unicode="&#xcf;" horiz-adv-x="231" d="M128 690V0H103V690H128ZM208 856Q218 856 218 845V789Q218 778 208 778H198Q188 778 188 789V845Q188 856 198 856H208ZM31 856Q41 856 41 845V789Q41 778 31 778H21Q11 778 11 789V845Q11 856 21 856H31Z" />
<glyph unicode="&#xd0;" horiz-adv-x="662" d="M314 381V361H26V381H314ZM335 699Q404 699 452 680T529 620T572 511T586 345Q586 248 573 180T530 71T452 10T335 -9Q269 -9 213 -7T106 0L119 17Q167 16 219 15T335 14Q418 14 467 45T538 149T560 345Q560 468
539 540T468 644T335 676Q271 676 218 675T116 672L106 690Q156 694 213 696T335 699ZM131 690V0H106V690H131Z" />
<glyph unicode="&#xd1;" horiz-adv-x="688" d="M585 690V15Q585 0 570 0H528Q522 0 518 2T510 11L190 600Q181 617 172 634T153 668H128Q128 651 128 634T128 599V0H103V675Q103 690 118 690H157Q163 690 167 688T175 679L488 103Q499 83 510 63T532 22H560Q560
45 560 67T560 112V690H585ZM288 866Q310 864 326 854T358 832T389 810T428 798Q459 796 472 811T486 861H503Q505 818 484 796T428 776Q395 779 373 794T332 826T288 844Q257 847 244 831T230 777H213Q212 808 221 828T247 858T288 866Z" />
<glyph unicode="&#xd2;" horiz-adv-x="662" d="M331 702Q402 702 451 683T529 622T572 512T586 345Q586 246 573 178T530 68T451 7T331 -12Q260 -12 211 7T133 68T90 178T76 345Q76 444 89 512T132 622T211 683T331 702ZM331 679Q246 679 196 647T124 542T102
345Q102 221 124 148T196 43T331 11Q416 11 466 43T538 148T560 345Q560 469 538 542T466 647T331 679ZM222 894L371 749L357 736L204 877L222 894Z" />
<glyph unicode="&#xd3;" horiz-adv-x="662" d="M331 702Q402 702 451 683T529 622T572 512T586 345Q586 246 573 178T530 68T451 7T331 -12Q260 -12 211 7T133 68T90 178T76 345Q76 444 89 512T132 622T211 683T331 702ZM331 679Q246 679 196 647T124 542T102
345Q102 221 124 148T196 43T331 11Q416 11 466 43T538 148T560 345Q560 469 538 542T466 647T331 679ZM433 894L451 877L298 736L284 749L433 894Z" />
<glyph unicode="&#xd4;" horiz-adv-x="662" d="M331 702Q402 702 451 683T529 622T572 512T586 345Q586 246 573 178T530 68T451 7T331 -12Q260 -12 211 7T133 68T90 178T76 345Q76 444 89 512T132 622T211 683T331 702ZM331 679Q246 679 196 647T124 542T102
345Q102 221 124 148T196 43T331 11Q416 11 466 43T538 148T560 345Q560 469 538 542T466 647T331 679ZM340 880L476 763L465 751L335 853H327L198 751L186 763L322 880H340Z" />
<glyph unicode="&#xd5;" horiz-adv-x="662" d="M331 702Q402 702 451 683T529 622T572 512T586 345Q586 246 573 178T530 68T451 7T331 -12Q260 -12 211 7T133 68T90 178T76 345Q76 444 89 512T132 622T211 683T331 702ZM331 679Q246 679 196 647T124 542T102
345Q102 221 124 148T196 43T331 11Q416 11 466 43T538 148T560 345Q560 469 538 542T466 647T331 679ZM262 866Q284 864 300 854T332 832T363 810T402 798Q433 796 446 811T460 861H477Q479 818 458 796T402 776Q369 779 347 794T306 826T262 844Q231 847 218
831T204 777H187Q186 808 195 828T221 858T262 866Z" />
<glyph unicode="&#xd6;" horiz-adv-x="662" d="M331 702Q402 702 451 683T529 622T572 512T586 345Q586 246 573 178T530 68T451 7T331 -12Q260 -12 211 7T133 68T90 178T76 345Q76 444 89 512T132 622T211 683T331 702ZM331 679Q246 679 196 647T124 542T102
345Q102 221 124 148T196 43T331 11Q416 11 466 43T538 148T560 345Q560 469 538 542T466 647T331 679ZM425 856Q435 856 435 845V789Q435 778 425 778H415Q405 778 405 789V845Q405 856 415 856H425ZM248 856Q258 856 258 845V789Q258 778 248 778H238Q228 778
228 789V845Q228 856 238 856H248Z" />
<glyph unicode="&#xd7;" horiz-adv-x="488" d="M415 453L65 139L79 122L429 437L415 453ZM79 453L65 436L415 122L429 139L79 453Z" />
<glyph unicode="&#xd8;" horiz-adv-x="662" d="M495 741L516 731L149 -51L128 -41L495 741ZM331 702Q402 702 451 683T529 622T572 512T586 345Q586 246 573 178T530 68T451 7T331 -12Q260 -12 211 7T133 68T90 178T76 345Q76 444 89 512T132 622T211 683T331
702ZM331 679Q246 679 196 647T124 542T102 345Q102 221 124 148T196 43T331 11Q416 11 466 43T538 148T560 345Q560 469 538 542T466 647T331 679Z" />
<glyph unicode="&#xd9;" horiz-adv-x="667" d="M569 690V255Q569 159 546 101T472 15T334 -12Q247 -12 196 15T121 100T98 255V690H123V255Q123 166 143 112T210 35T334 11Q411 11 457 34T523 112T544 255V690H569ZM225 894L374 749L360 736L207 877L225 894Z" />
<glyph unicode="&#xda;" horiz-adv-x="667" d="M569 690V255Q569 159 546 101T472 15T334 -12Q247 -12 196 15T121 100T98 255V690H123V255Q123 166 143 112T210 35T334 11Q411 11 457 34T523 112T544 255V690H569ZM436 894L454 877L301 736L287 749L436 894Z" />
<glyph unicode="&#xdb;" horiz-adv-x="667" d="M569 690V255Q569 159 546 101T472 15T334 -12Q247 -12 196 15T121 100T98 255V690H123V255Q123 166 143 112T210 35T334 11Q411 11 457 34T523 112T544 255V690H569ZM343 880L479 763L468 751L338 853H330L201 751L189
763L325 880H343Z" />
<glyph unicode="&#xdc;" horiz-adv-x="667" d="M569 690V255Q569 159 546 101T472 15T334 -12Q247 -12 196 15T121 100T98 255V690H123V255Q123 166 143 112T210 35T334 11Q411 11 457 34T523 112T544 255V690H569ZM428 856Q438 856 438 845V789Q438 778 428 778H418Q408
778 408 789V845Q408 856 418 856H428ZM251 856Q261 856 261 845V789Q261 778 251 778H241Q231 778 231 789V845Q231 856 241 856H251Z" />
<glyph unicode="&#xdd;" horiz-adv-x="541" d="M518 690L279 250H262L22 690H50L230 357Q239 341 248 324T268 289H273Q282 306 292 323T310 356L490 690H518ZM283 281V0H258V281H283ZM372 894L390 877L237 736L223 749L372 894Z" />
<glyph unicode="&#xde;" horiz-adv-x="583" d="M324 555Q397 555 440 537T503 475T523 352Q523 272 504 228T441 167T324 149Q284 149 250 149T187 151T140 152T113 154L116 172Q165 172 218 172T324 172Q388 173 425 188T480 242T497 352Q497 424 480 463T426
517T324 532Q248 532 193 532T117 529L103 547Q138 551 169 552T236 554T324 555ZM128 690V0H103V690H128Z" />
<glyph unicode="&#xdf;" horiz-adv-x="651" d="M329 712Q393 712 439 703T511 669T536 601Q536 559 525 535T492 496T434 470Q390 456 361 446T318 419T304 365Q304 327 322 310T370 284L503 244Q533 235 554 221T588 184T600 122Q600 61 580 33T524 -3T441 -11Q408
-11 368 -9T276 0L278 18Q322 14 361 12T441 11Q486 12 515 19T560 50T575 122Q575 157 565 176T538 205T500 221L368 261Q328 273 304 295T280 365Q280 409 298 430T351 464T433 492Q480 508 497 530T514 601Q514 636 492 655T428 682T329 690Q261 690 221 677T164
630T147 531V0H123V531Q123 594 138 631T182 685T247 707T329 712ZM139 480V458H36V475L129 480H139Z" />
<glyph unicode="&#xe0;" horiz-adv-x="538" d="M314 492Q355 492 385 479T431 436T447 358V0H429L423 106V112V358Q423 404 400 436T313 469Q259 469 200 465T88 453L85 471Q117 476 150 480T224 488T314 492ZM427 290L426 270L181 266Q137 265 114 243T91 177V115Q91
68 116 44T191 18Q230 17 274 31T360 70T428 122V97Q414 81 389 64T331 30T263 4T191 -6Q152 -6 124 8T81 49T66 115V177Q66 231 96 260T181 290H427ZM157 712L306 567L292 554L139 695L157 712Z" />
<glyph unicode="&#xe1;" horiz-adv-x="538" d="M314 492Q355 492 385 479T431 436T447 358V0H429L423 106V112V358Q423 404 400 436T313 469Q259 469 200 465T88 453L85 471Q117 476 150 480T224 488T314 492ZM427 290L426 270L181 266Q137 265 114 243T91 177V115Q91
68 116 44T191 18Q230 17 274 31T360 70T428 122V97Q414 81 389 64T331 30T263 4T191 -6Q152 -6 124 8T81 49T66 115V177Q66 231 96 260T181 290H427ZM368 712L386 695L233 554L219 567L368 712Z" />
<glyph unicode="&#xe2;" horiz-adv-x="538" d="M314 492Q355 492 385 479T431 436T447 358V0H429L423 106V112V358Q423 404 400 436T313 469Q259 469 200 465T88 453L85 471Q117 476 150 480T224 488T314 492ZM427 290L426 270L181 266Q137 265 114 243T91 177V115Q91
68 116 44T191 18Q230 17 274 31T360 70T428 122V97Q414 81 389 64T331 30T263 4T191 -6Q152 -6 124 8T81 49T66 115V177Q66 231 96 260T181 290H427ZM275 954L411 837L400 825L270 927H262L133 825L121 837L257 954H275Z" />
<glyph unicode="&#xe3;" horiz-adv-x="538" d="M314 492Q355 492 385 479T431 436T447 358V0H429L423 106V112V358Q423 404 400 436T313 469Q259 469 200 465T88 453L85 471Q117 476 150 480T224 488T314 492ZM427 290L426 270L181 266Q137 265 114 243T91 177V115Q91
68 116 44T191 18Q230 17 274 31T360 70T428 122V97Q414 81 389 64T331 30T263 4T191 -6Q152 -6 124 8T81 49T66 115V177Q66 231 96 260T181 290H427ZM197 940Q219 938 235 928T267 906T298 884T337 872Q368 870 381 885T395 935H412Q414 892 393 870T337 850Q304
853 282 868T241 900T197 918Q166 921 153 905T139 851H122Q121 882 130 902T156 932T197 940Z" />
<glyph unicode="&#xe4;" horiz-adv-x="538" d="M314 492Q355 492 385 479T431 436T447 358V0H429L423 106V112V358Q423 404 400 436T313 469Q259 469 200 465T88 453L85 471Q117 476 150 480T224 488T314 492ZM427 290L426 270L181 266Q137 265 114 243T91 177V115Q91
68 116 44T191 18Q230 17 274 31T360 70T428 122V97Q414 81 389 64T331 30T263 4T191 -6Q152 -6 124 8T81 49T66 115V177Q66 231 96 260T181 290H427ZM360 674Q370 674 370 663V607Q370 596 360 596H350Q340 596 340 607V663Q340 674 350 674H360ZM183 674Q193
674 193 663V607Q193 596 183 596H173Q163 596 163 607V663Q163 674 173 674H183Z" />
<glyph unicode="&#xe5;" horiz-adv-x="538" d="M314 492Q355 492 385 479T431 436T447 358V0H429L423 106V112V358Q423 404 400 436T313 469Q259 469 200 465T88 453L85 471Q117 476 150 480T224 488T314 492ZM427 290L426 270L181 266Q137 265 114 243T91 177V115Q91
68 116 44T191 18Q230 17 274 31T360 70T428 122V97Q414 81 389 64T331 30T263 4T191 -6Q152 -6 124 8T81 49T66 115V177Q66 231 96 260T181 290H427ZM267 983Q294 983 315 970T350 936T363 888Q363 864 351 842T316 807T267 793Q241 793 219 805T184 840T171 888Q171
914 184 935T219 970T267 983ZM267 964Q235 964 214 942T192 888Q192 855 213 834T267 812Q300 812 321 833T342 888Q342 920 321 942T267 964Z" />
<glyph unicode="&#xe6;" horiz-adv-x="880" d="M629 492Q723 492 770 458T818 356Q819 309 805 281T760 240T675 227H437V249H675Q741 249 768 272T793 354Q792 412 751 440T630 469Q563 469 523 447T466 376T448 243Q448 157 468 106T530 33T640 11Q689 11 732
15T803 24L807 6Q791 1 761 -3T697 -9T637 -12Q561 -12 514 13T445 95T423 242Q423 334 443 389T509 468T629 492ZM427 290L426 270L181 266Q137 265 114 243T91 177V115Q91 68 116 44T191 18Q233 17 281 33T374 75T448 132V107Q432 90 405 71T342 34T269 5T191
-6Q152 -6 124 8T81 49T66 115V177Q66 231 96 260T181 290H427ZM314 492Q355 492 385 479T431 436T447 358V225L423 224V358Q423 404 400 436T313 469Q259 469 200 465T88 453L85 471Q117 476 150 480T224 488T314 492Z" />
<glyph unicode="&#xe7;" horiz-adv-x="478" d="M288 492Q306 492 329 491T377 486T423 475L417 457Q391 464 354 466T292 469Q220 469 177 449T114 379T94 240Q94 152 113 102T176 32T292 11Q306 11 330 12T381 16T430 23L434 5Q401 -2 363 -7T289 -12Q209 -12
161 12T91 92T69 240Q69 333 90 388T160 467T288 492ZM257 -61Q283 -59 300 -65T327 -87T335 -126Q335 -159 318 -185T270 -223T196 -231L200 -216Q253 -218 283 -191T313 -126Q313 -98 300 -87T254 -75L257 -61Z" />
<glyph unicode="&#xe8;" horiz-adv-x="527" d="M275 492Q369 492 416 458T464 356Q466 292 443 260T361 227H83V249H361Q405 249 423 276T439 354Q438 414 397 441T276 469Q209 469 169 447T112 376T94 243Q94 157 114 106T176 33T286 11Q335 11 378 15T449 24L453
6Q437 1 407 -3T343 -9T283 -12Q207 -12 160 13T91 95T69 242Q69 334 89 389T155 468T275 492ZM167 712L316 567L302 554L149 695L167 712Z" />
<glyph unicode="&#xe9;" horiz-adv-x="527" d="M275 492Q369 492 416 458T464 356Q466 292 443 260T361 227H83V249H361Q405 249 423 276T439 354Q438 414 397 441T276 469Q209 469 169 447T112 376T94 243Q94 157 114 106T176 33T286 11Q335 11 378 15T449 24L453
6Q437 1 407 -3T343 -9T283 -12Q207 -12 160 13T91 95T69 242Q69 334 89 389T155 468T275 492ZM378 712L396 695L243 554L229 567L378 712Z" />
<glyph unicode="&#xea;" horiz-adv-x="527" d="M275 492Q369 492 416 458T464 356Q466 292 443 260T361 227H83V249H361Q405 249 423 276T439 354Q438 414 397 441T276 469Q209 469 169 447T112 376T94 243Q94 157 114 106T176 33T286 11Q335 11 378 15T449 24L453
6Q437 1 407 -3T343 -9T283 -12Q207 -12 160 13T91 95T69 242Q69 334 89 389T155 468T275 492ZM285 954L421 837L410 825L280 927H272L143 825L131 837L267 954H285Z" />
<glyph unicode="&#xeb;" horiz-adv-x="527" d="M275 492Q369 492 416 458T464 356Q466 292 443 260T361 227H83V249H361Q405 249 423 276T439 354Q438 414 397 441T276 469Q209 469 169 447T112 376T94 243Q94 157 114 106T176 33T286 11Q335 11 378 15T449 24L453
6Q437 1 407 -3T343 -9T283 -12Q207 -12 160 13T91 95T69 242Q69 334 89 389T155 468T275 492ZM370 674Q380 674 380 663V607Q380 596 370 596H360Q350 596 350 607V663Q350 674 360 674H370ZM193 674Q203 674 203 663V607Q203 596 193 596H183Q173 596 173 607V663Q173
674 183 674H193Z" />
<glyph unicode="&#xec;" horiz-adv-x="220" d="M122 480V0H98V480H122ZM255 712L404 567L390 554L237 695L255 712Z" />
<glyph unicode="&#xed;" horiz-adv-x="220" d="M122 480V0H98V480H122ZM210 712L228 695L75 554L61 567L210 712Z" />
<glyph unicode="&#xee;" horiz-adv-x="220" d="M122 480V0H98V480H122ZM373 954L509 837L498 825L368 927H360L231 825L219 837L355 954H373Z" />
<glyph unicode="&#xef;" horiz-adv-x="220" d="M122 480V0H98V480H122ZM458 674Q468 674 468 663V607Q468 596 458 596H448Q438 596 438 607V663Q438 674 448 674H458ZM281 674Q291 674 291 663V607Q291 596 281 596H271Q261 596 261 607V663Q261 674 271 674H281Z" />
<glyph unicode="&#xf0;" horiz-adv-x="548" d="M122 698Q159 699 205 691T297 660T381 590T443 468T467 279Q467 223 462 171T437 78T378 12T270 -12Q168 -12 119 43T70 221Q70 290 89 340T152 418T269 446Q298 446 327 440T388 419T457 378L450 363Q396 399 354
411T264 424Q199 424 162 398T110 325T95 220Q95 105 138 58T270 10Q346 10 383 45T431 142T443 286Q443 396 420 468T358 583T275 646T189 673T116 680L122 698ZM414 698L425 681L234 549L223 566L414 698Z" />
<glyph unicode="&#xf1;" horiz-adv-x="570" d="M350 492Q479 492 479 361V0H455V358Q455 415 428 442T345 469Q290 469 239 444T116 369V392Q178 442 236 467T350 492ZM113 480L116 392L119 376V0H95V480H113ZM223 940Q245 938 261 928T293 906T324 884T363 872Q394
870 407 885T421 935H438Q440 892 419 870T363 850Q330 853 308 868T267 900T223 918Q192 921 179 905T165 851H148Q147 882 156 902T182 932T223 940Z" />
<glyph unicode="&#xf2;" horiz-adv-x="560" d="M280 492Q358 492 404 468T470 388T490 241Q490 148 470 93T404 13T280 -12Q203 -12 157 12T90 92T70 240Q70 333 90 388T156 467T280 492ZM280 469Q212 469 172 448T113 377T95 241Q95 154 113 104T171 32T280 11Q348
11 388 32T447 103T465 241Q465 327 447 377T389 448T280 469ZM169 712L318 567L304 554L151 695L169 712Z" />
<glyph unicode="&#xf3;" horiz-adv-x="560" d="M280 492Q358 492 404 468T470 388T490 241Q490 148 470 93T404 13T280 -12Q203 -12 157 12T90 92T70 240Q70 333 90 388T156 467T280 492ZM280 469Q212 469 172 448T113 377T95 241Q95 154 113 104T171 32T280 11Q348
11 388 32T447 103T465 241Q465 327 447 377T389 448T280 469ZM380 712L398 695L245 554L231 567L380 712Z" />
<glyph unicode="&#xf4;" horiz-adv-x="560" d="M280 492Q358 492 404 468T470 388T490 241Q490 148 470 93T404 13T280 -12Q203 -12 157 12T90 92T70 240Q70 333 90 388T156 467T280 492ZM280 469Q212 469 172 448T113 377T95 241Q95 154 113 104T171 32T280 11Q348
11 388 32T447 103T465 241Q465 327 447 377T389 448T280 469ZM287 954L423 837L412 825L282 927H274L145 825L133 837L269 954H287Z" />
<glyph unicode="&#xf5;" horiz-adv-x="560" d="M280 492Q358 492 404 468T470 388T490 241Q490 148 470 93T404 13T280 -12Q203 -12 157 12T90 92T70 240Q70 333 90 388T156 467T280 492ZM280 469Q212 469 172 448T113 377T95 241Q95 154 113 104T171 32T280 11Q348
11 388 32T447 103T465 241Q465 327 447 377T389 448T280 469ZM209 940Q231 938 247 928T279 906T310 884T349 872Q380 870 393 885T407 935H424Q426 892 405 870T349 850Q316 853 294 868T253 900T209 918Q178 921 165 905T151 851H134Q133 882 142 902T168 932T209
940Z" />
<glyph unicode="&#xf6;" horiz-adv-x="560" d="M280 492Q358 492 404 468T470 388T490 241Q490 148 470 93T404 13T280 -12Q203 -12 157 12T90 92T70 240Q70 333 90 388T156 467T280 492ZM280 469Q212 469 172 448T113 377T95 241Q95 154 113 104T171 32T280 11Q348
11 388 32T447 103T465 241Q465 327 447 377T389 448T280 469ZM372 674Q382 674 382 663V607Q382 596 372 596H362Q352 596 352 607V663Q352 674 362 674H372ZM195 674Q205 674 205 663V607Q205 596 195 596H185Q175 596 175 607V663Q175 674 185 674H195Z" />
<glyph unicode="&#xf7;" horiz-adv-x="589" d="M503 307V285H86V307H503ZM298 176Q304 176 307 173T310 164V102Q310 96 307 93T298 90H288Q282 90 279 93T276 102V164Q276 170 279 173T288 176H298ZM298 502Q304 502 307 499T310 490V428Q310 422 307 419T298
416H288Q282 416 279 419T276 428V490Q276 496 279 499T288 502H298Z" />
<glyph unicode="&#xf8;" horiz-adv-x="560" d="M404 539L423 530L147 -61L128 -52L404 539ZM280 492Q358 492 404 468T470 388T490 240Q490 148 470 93T404 13T280 -12Q203 -12 157 12T90 92T70 240Q70 333 90 388T156 467T280 492ZM280 469Q212 469 172 448T113
377T95 240Q95 154 113 104T171 32T280 11Q348 11 388 32T447 103T465 240Q465 327 447 377T389 448T280 469Z" />
<glyph unicode="&#xf9;" horiz-adv-x="560" d="M115 480V122Q115 65 142 38T225 11Q278 11 327 36T444 111V88Q385 39 330 14T220 -12Q91 -12 91 119V480H115ZM465 480V0H447L444 88L441 104V480H465ZM170 712L319 567L305 554L152 695L170 712Z" />
<glyph unicode="&#xfa;" horiz-adv-x="560" d="M115 480V122Q115 65 142 38T225 11Q278 11 327 36T444 111V88Q385 39 330 14T220 -12Q91 -12 91 119V480H115ZM465 480V0H447L444 88L441 104V480H465ZM381 712L399 695L246 554L232 567L381 712Z" />
<glyph unicode="&#xfb;" horiz-adv-x="560" d="M115 480V122Q115 65 142 38T225 11Q278 11 327 36T444 111V88Q385 39 330 14T220 -12Q91 -12 91 119V480H115ZM465 480V0H447L444 88L441 104V480H465ZM288 954L424 837L413 825L283 927H275L146 825L134 837L270 954H288Z" />
<glyph unicode="&#xfc;" horiz-adv-x="560" d="M115 480V122Q115 65 142 38T225 11Q278 11 327 36T444 111V88Q385 39 330 14T220 -12Q91 -12 91 119V480H115ZM465 480V0H447L444 88L441 104V480H465ZM373 674Q383 674 383 663V607Q383 596 373 596H363Q353 596
353 607V663Q353 674 363 674H373ZM196 674Q206 674 206 663V607Q206 596 196 596H186Q176 596 176 607V663Q176 674 186 674H196Z" />
<glyph unicode="&#xfd;" horiz-adv-x="506" d="M477 480L256 -47Q243 -77 230 -102T198 -149T157 -185T101 -210L95 -196Q155 -173 185 -132T235 -38L254 9Q261 25 268 42T282 76L451 480H477ZM56 480L225 74Q230 61 236 48T247 22H266L256 0H240Q236 0 233 2T227
8L30 480H56ZM357 712L375 695L222 554L208 567L357 712Z" />
<glyph unicode="&#xfe;" horiz-adv-x="562" d="M316 492Q411 492 450 435T490 240Q490 149 473 94T417 13T316 -12Q267 -12 218 2T115 42V61Q177 36 222 24T316 11Q370 11 402 33T450 106T465 240Q465 324 450 374T403 447T316 469Q268 469 223 448T115 379V402Q168
447 217 469T316 492ZM119 700V496Q119 470 119 450T116 403L119 391V54L116 42Q119 16 119 -4T119 -51V-210H95V700H119Z" />
<glyph unicode="&#xff;" horiz-adv-x="506" d="M477 480L256 -47Q243 -77 230 -102T198 -149T157 -185T101 -210L95 -196Q155 -173 185 -132T235 -38L254 9Q261 25 268 42T282 76L451 480H477ZM56 480L225 74Q230 61 236 48T247 22H266L256 0H240Q236 0 233 2T227
8L30 480H56ZM349 674Q359 674 359 663V607Q359 596 349 596H339Q329 596 329 607V663Q329 674 339 674H349ZM172 674Q182 674 182 663V607Q182 596 172 596H162Q152 596 152 607V663Q152 674 162 674H172Z" />
<glyph unicode="&#x2013;" horiz-adv-x="623" d="M537 262V240H86V262H537Z" />
<glyph unicode="&#x2014;" horiz-adv-x="933" d="M847 262V240H86V262H847Z" />
<glyph unicode="&#x2018;" horiz-adv-x="197" d="M94 528Q89 528 86 531T82 540L83 604Q83 622 85 644T91 689T100 731L111 726Q109 696 109 674T108 614Q116 614 114 604L113 540Q114 534 112 531T103 528H94Z" />
<glyph unicode="&#x2019;" horiz-adv-x="195" d="M103 721Q108 721 111 718T115 709L114 645Q114 627 112 605T106 561T97 518L86 523Q88 553 88 575T89 635Q81 635 83 645L84 709Q83 715 85 718T94 721H103Z" />
<glyph unicode="&#x201a;" horiz-adv-x="208" d="M109 86Q115 86 118 83T122 74L121 10Q121 -8 119 -30T113 -74T103 -117L91 -112Q93 -82 94 -60T95 0Q86 0 88 10L89 74Q88 80 91 83T100 86H109Z" />
<glyph unicode="&#x201c;" horiz-adv-x="311" d="M94 528Q89 528 86 531T82 540L83 604Q83 622 85 644T91 689T100 731L111 726Q109 696 109 674T108 614Q116 614 114 604L113 540Q114 534 112 531T103 528H94ZM208 528Q203 528 200 531T196 540L197 604Q197 622
199 644T205 689T214 731L225 726Q223 696 223 674T222 614Q230 614 228 604L227 540Q228 534 226 531T217 528H208Z" />
<glyph unicode="&#x201d;" horiz-adv-x="309" d="M217 721Q222 721 225 718T229 709L228 645Q228 627 226 605T220 561T211 518L200 523Q202 553 202 575T203 635Q195 635 197 645L198 709Q197 715 199 718T208 721H217ZM103 721Q108 721 111 718T115 709L114
645Q114 627 112 605T106 561T97 518L86 523Q88 553 88 575T89 635Q81 635 83 645L84 709Q83 715 85 718T94 721H103Z" />
<glyph unicode="&#x201e;" horiz-adv-x="321" d="M222 86Q227 86 230 83T234 74L233 10Q233 -8 231 -30T225 -74T216 -117L205 -112Q207 -82 207 -60T208 0Q200 0 202 10L203 74Q202 80 204 83T213 86H222ZM108 86Q113 86 116 83T120 74L119 10Q119 -8 117 -30T111
-74T102 -117L91 -112Q93 -82 93 -60T94 0Q86 0 88 10L89 74Q88 80 90 83T99 86H108Z" />
<glyph unicode="&#x2022;" horiz-adv-x="351" d="M181 337Q217 337 231 323T245 273V263Q245 226 231 212T181 198H171Q134 198 120 212T106 263V273Q106 309 120 323T171 337H181Z" />
<glyph unicode="&#x2039;" horiz-adv-x="225" d="M184 454L196 444L48 251L197 56L185 46L21 247V255L184 454Z" />
<glyph unicode="&#x203a;" horiz-adv-x="226" d="M41 454L205 255V247L40 46L28 56L177 251L29 444L41 454Z" />
</font>
</defs>
</svg>
